<svg xmlns="http://www.w3.org/2000/svg" xmlns:xlink="http://www.w3.org/1999/xlink" width="793" zoomAndPan="magnify" viewBox="0 0 595.5 842.249979" height="1122" preserveAspectRatio="xMidYMid meet" version="1.0"><defs><clipPath id="c19bfd6d93"><path d="M 0.015625 0 L 594.984375 0 L 594.984375 841.5 L 0.015625 841.5 Z M 0.015625 0 " clip-rule="nonzero"/></clipPath><clipPath id="4474200b16"><path d="M 7.617188 201 L 594.984375 201 L 594.984375 394 L 7.617188 394 Z M 7.617188 201 " clip-rule="nonzero"/></clipPath></defs><g clip-path="url(#c19bfd6d93)"><path fill="#ffffff" d="M 0.015625 0 L 595.484375 0 L 595.484375 848.957031 L 0.015625 848.957031 Z M 0.015625 0 " fill-opacity="1" fill-rule="nonzero"/><path fill="#ffffff" d="M 0.015625 0 L 595.484375 0 L 595.484375 842.207031 L 0.015625 842.207031 Z M 0.015625 0 " fill-opacity="1" fill-rule="nonzero"/><path fill="#070707" d="M 0.015625 0 L 595.484375 0 L 595.484375 842.207031 L 0.015625 842.207031 Z M 0.015625 0 " fill-opacity="1" fill-rule="nonzero"/></g><g clip-path="url(#4474200b16)"><path fill="#edc808" d="M 465.042969 291.394531 C 454.597656 282.867188 443.800781 274.042969 432.867188 266.101562 C 397.222656 240.21875 355.109375 221.09375 311.074219 210.800781 C 276.152344 202.636719 239.855469 200.082031 204.640625 203.023438 C 203.039062 203.136719 201.453125 203.304688 199.855469 203.445312 C 198.421875 203.550781 197.007812 203.714844 195.582031 203.839844 C 193.953125 203.964844 192.347656 204.148438 190.726562 204.300781 C 189.441406 204.402344 188.175781 204.5625 186.894531 204.683594 C 185.476562 204.792969 184.070312 204.949219 182.660156 205.082031 C 181.238281 205.195312 179.828125 205.34375 178.414062 205.480469 C 176.976562 205.597656 175.550781 205.742188 174.117188 205.882812 C 172.675781 206 171.246094 206.140625 169.8125 206.285156 C 168.378906 206.402344 166.953125 206.539062 165.527344 206.683594 C 164.066406 206.808594 162.605469 206.941406 161.152344 207.089844 C 159.777344 207.210938 158.402344 207.324219 157.035156 207.46875 C 155.558594 207.59375 154.082031 207.714844 152.617188 207.871094 C 151.304688 207.988281 149.984375 208.074219 148.679688 208.210938 C 147.613281 208.285156 146.542969 208.367188 145.472656 208.457031 C 145.4375 208.460938 145.402344 208.464844 145.367188 208.464844 C 143.03125 208.660156 140.691406 208.867188 138.335938 209.152344 C 137.191406 209.261719 136.078125 209.4375 134.945312 209.566406 C 133.503906 209.703125 132.050781 209.800781 130.621094 209.96875 C 129.207031 210.097656 127.777344 210.1875 126.375 210.351562 C 124.929688 210.488281 123.472656 210.570312 122.039062 210.742188 C 120.582031 210.878906 119.105469 210.960938 117.65625 211.136719 C 116.734375 211.226562 115.78125 211.234375 114.863281 211.335938 C 113.195312 211.445312 111.535156 211.589844 109.878906 211.746094 C 108.410156 211.84375 106.953125 211.984375 105.496094 212.125 C 104.046875 212.226562 102.617188 212.363281 101.179688 212.503906 C 99.789062 212.601562 98.40625 212.730469 97.023438 212.863281 C 95.808594 212.949219 94.601562 213.050781 93.394531 213.164062 C 91.742188 213.273438 90.101562 213.40625 88.46875 213.566406 C 87.171875 213.652344 85.898438 213.808594 84.613281 213.929688 C 83.085938 214.03125 81.585938 214.191406 80.078125 214.335938 C 65.941406 215.277344 52.554688 218.222656 40.097656 223.179688 C 28.742188 227.699219 17.851562 234.121094 7.617188 242.144531 L 7.617188 242.777344 C 17.90625 234.671875 28.859375 228.191406 40.28125 223.644531 C 47.789062 220.65625 55.320312 218.578125 62.804688 217.101562 C 56.527344 218.527344 50.414062 220.335938 44.523438 222.640625 C 31.574219 227.679688 19.171875 235.113281 7.617188 244.570312 L 7.617188 245.21875 C 19.222656 235.671875 31.6875 228.167969 44.707031 223.101562 C 52.039062 220.238281 59.699219 218.078125 67.609375 216.578125 C 61.203125 217.984375 54.964844 219.789062 48.953125 222.09375 C 34.34375 227.652344 20.488281 236.027344 7.617188 246.964844 L 7.617188 247.671875 C 20.523438 236.640625 34.515625 228.121094 49.128906 222.5625 C 56.335938 219.800781 63.851562 217.699219 71.613281 216.226562 C 65.359375 217.597656 59.257812 219.339844 53.378906 221.550781 C 37.148438 227.585938 21.789062 236.992188 7.617188 249.457031 L 7.617188 250.035156 C 20.417969 238.707031 35.628906 228.683594 53.554688 222.019531 C 60.898438 219.257812 68.566406 217.175781 76.476562 215.726562 C 70.078125 217.078125 63.832031 218.804688 57.804688 221.007812 C 37.988281 228.261719 21.375 239.441406 7.617188 251.921875 L 7.617188 252.601562 C 21.398438 240.035156 38.0625 228.765625 57.976562 221.476562 C 63.996094 219.273438 70.238281 217.546875 76.628906 216.199219 C 71.71875 217.375 66.914062 218.792969 62.230469 220.46875 C 40.417969 228.28125 22.316406 240.703125 7.617188 254.394531 L 7.617188 255.09375 C 22.335938 241.308594 40.484375 228.789062 62.402344 220.9375 C 68.289062 218.832031 74.386719 217.167969 80.628906 215.859375 C 75.871094 216.988281 71.207031 218.335938 66.664062 219.925781 C 42.773438 228.296875 23.226562 242.046875 7.617188 256.933594 L 7.617188 257.617188 C 23.238281 242.644531 42.84375 228.800781 66.828125 220.398438 C 72.566406 218.386719 78.503906 216.796875 84.574219 215.527344 C 79.984375 216.609375 75.480469 217.878906 71.089844 219.386719 C 45.105469 228.285156 24.085938 243.371094 7.617188 259.386719 L 7.617188 260.089844 C 24.09375 243.992188 45.164062 228.792969 71.253906 219.855469 C 76.890625 217.925781 82.722656 216.386719 88.675781 215.152344 C 84.203125 216.195312 79.804688 217.40625 75.519531 218.84375 C 47.410156 228.253906 24.890625 244.695312 7.617188 261.761719 L 7.617188 262.476562 C 24.890625 245.324219 47.457031 228.765625 75.675781 219.316406 C 81.382812 217.40625 87.28125 215.886719 93.308594 214.671875 C 88.769531 215.703125 84.292969 216.875 79.945312 218.300781 C 49.644531 228.214844 25.644531 246.058594 7.617188 264.109375 L 7.617188 264.8125 C 25.636719 246.6875 49.695312 228.722656 80.101562 218.773438 C 85.375 217.050781 90.824219 215.683594 96.367188 214.539062 C 96.410156 214.542969 96.453125 214.539062 96.496094 214.542969 C 92.394531 215.488281 88.320312 216.496094 84.371094 217.757812 C 56.546875 226.648438 30.433594 243.339844 7.617188 266.441406 L 7.617188 267.167969 C 30.460938 243.933594 56.628906 227.148438 84.523438 218.234375 C 88.925781 216.824219 93.453125 215.660156 98.042969 214.644531 C 98.222656 214.65625 98.394531 214.671875 98.574219 214.683594 C 95.289062 215.476562 91.984375 216.222656 88.800781 217.214844 C 59.34375 226.40625 31.671875 244.109375 7.617188 268.679688 L 7.617188 269.390625 C 31.695312 244.691406 59.425781 226.902344 88.945312 217.691406 C 92.59375 216.550781 96.367188 215.664062 100.144531 214.789062 C 100.28125 214.800781 100.421875 214.808594 100.558594 214.820312 C 98.113281 215.4375 95.617188 215.949219 93.226562 216.675781 C 62.171875 226.132812 32.90625 244.707031 7.617188 270.679688 L 7.617188 271.378906 C 32.925781 245.277344 62.253906 226.628906 93.375 217.152344 C 96.234375 216.277344 99.210938 215.644531 102.152344 214.929688 C 102.246094 214.9375 102.34375 214.941406 102.4375 214.949219 C 100.855469 215.367188 99.214844 215.667969 97.65625 216.128906 C 65 225.832031 34.132812 245.273438 7.617188 272.609375 L 7.617188 273.347656 C 34.152344 245.875 65.074219 226.332031 97.796875 216.609375 C 99.839844 216.003906 101.984375 215.589844 104.070312 215.0625 C 104.117188 215.066406 104.167969 215.066406 104.21875 215.070312 C 103.515625 215.265625 102.777344 215.386719 102.082031 215.585938 C 67.808594 225.519531 35.367188 245.90625 7.617188 274.582031 L 7.617188 275.308594 C 35.382812 246.492188 67.882812 226.015625 102.222656 216.070312 C 103.394531 215.730469 104.628906 215.515625 105.816406 215.203125 C 105.867188 215.207031 105.914062 215.214844 105.964844 215.222656 C 70.300781 225.410156 36.441406 246.53125 7.617188 276.320312 L 7.617188 277.035156 C 36.605469 246.957031 70.714844 225.671875 106.644531 215.527344 C 106.847656 215.46875 107.066406 215.4375 107.269531 215.378906 C 107.484375 215.402344 107.699219 215.433594 107.914062 215.457031 C 71.578125 226.085938 36.980469 247.558594 7.617188 277.84375 L 7.617188 278.542969 C 37.277344 247.828125 72.328125 226.136719 109.113281 215.605469 C 109.332031 215.628906 109.546875 215.65625 109.765625 215.683594 C 73.75 226.449219 39.351562 247.453125 9.988281 276.929688 C 9.179688 277.738281 8.417969 278.625 7.617188 279.445312 L 7.617188 280.164062 C 8.535156 279.21875 9.414062 278.210938 10.339844 277.28125 C 39.933594 247.570312 74.65625 226.472656 110.976562 215.832031 C 111.152344 215.855469 111.332031 215.871094 111.507812 215.894531 C 76.105469 226.695312 42.207031 247.042969 13.035156 275.34375 C 11.1875 277.136719 9.425781 279.050781 7.617188 280.898438 L 7.617188 281.609375 C 9.539062 279.636719 11.417969 277.609375 13.382812 275.703125 C 42.800781 247.164062 77.023438 226.734375 112.742188 216.046875 C 112.875 216.066406 113.015625 216.078125 113.148438 216.097656 C 78.386719 226.898438 45.027344 246.617188 16.082031 273.757812 C 13.207031 276.457031 10.417969 279.320312 7.617188 282.171875 L 7.617188 282.765625 C 10.511719 279.804688 13.445312 276.917969 16.425781 274.125 C 45.613281 246.753906 79.296875 226.964844 114.371094 216.257812 C 114.453125 216.269531 114.53125 216.289062 114.609375 216.300781 C 80.53125 227.082031 47.773438 246.199219 19.132812 272.175781 C 15.214844 275.730469 11.390625 279.457031 7.617188 283.269531 L 7.617188 284.082031 C 11.507812 280.132812 15.421875 276.21875 19.46875 272.546875 C 48.332031 246.367188 81.390625 227.195312 115.761719 216.496094 C 115.910156 216.519531 116.058594 216.550781 116.207031 216.574219 C 82.75 227.292969 50.53125 245.71875 22.179688 270.589844 C 17.207031 274.953125 12.363281 279.535156 7.617188 284.277344 L 7.617188 285.046875 C 12.464844 280.160156 17.414062 275.441406 22.507812 270.96875 C 51.058594 245.921875 83.527344 227.402344 117.230469 216.75 C 117.410156 216.777344 117.589844 216.8125 117.769531 216.839844 C 84.945312 227.46875 53.273438 245.203125 25.230469 269.011719 C 19.171875 274.152344 13.332031 279.648438 7.617188 285.324219 L 7.617188 286.101562 C 13.441406 280.289062 19.371094 274.636719 25.554688 269.386719 C 53.800781 245.414062 85.730469 227.589844 118.8125 217.019531 C 118.949219 217.042969 119.089844 217.066406 119.230469 217.089844 C 87.042969 227.605469 55.960938 244.683594 28.277344 267.425781 C 21.121094 273.308594 14.296875 279.683594 7.617188 286.257812 L 7.617188 289.804688 C 12.097656 285.714844 16.613281 281.667969 21.308594 277.824219 C 22.070312 277.207031 22.808594 276.5625 23.574219 275.953125 C 25.691406 274.253906 27.875 272.640625 30.03125 270.992188 C 32.96875 268.765625 35.886719 266.511719 38.894531 264.382812 C 38.90625 264.375 38.914062 264.367188 38.925781 264.363281 C 66.367188 244.941406 96.664062 229.59375 128.714844 219.003906 C 145.21875 222.796875 159.472656 228.292969 169.828125 233.023438 C 208.007812 250.476562 241.5 277.339844 273.890625 303.320312 C 275.882812 304.917969 277.871094 306.511719 279.863281 308.105469 C 315.730469 336.816406 351.328125 363.867188 392.367188 379.300781 C 416.902344 388.527344 442.90625 393.3125 469.652344 393.527344 C 470.28125 393.535156 470.90625 393.539062 471.535156 393.539062 C 497.625 393.539062 523.058594 389.167969 547.160156 380.546875 C 547.78125 380.324219 548.378906 380.074219 548.996094 379.851562 C 549.585938 379.644531 550.195312 379.480469 550.78125 379.269531 C 551.351562 379.0625 551.90625 378.832031 552.472656 378.625 C 553.109375 378.398438 553.765625 378.222656 554.402344 377.992188 C 554.90625 377.808594 555.394531 377.601562 555.898438 377.417969 C 556.601562 377.167969 557.324219 376.96875 558.023438 376.714844 C 558.359375 376.589844 558.679688 376.433594 559.015625 376.3125 C 559.886719 376.003906 560.78125 375.753906 561.644531 375.433594 C 561.921875 375.332031 562.183594 375.203125 562.457031 375.101562 C 563.386719 374.769531 564.34375 374.5 565.269531 374.15625 C 565.625 374.027344 565.976562 373.875 566.335938 373.738281 C 567.179688 373.4375 568.050781 373.195312 568.894531 372.878906 C 569.109375 372.800781 569.316406 372.691406 569.53125 372.613281 C 570.519531 372.257812 571.535156 371.972656 572.515625 371.601562 C 572.710938 371.53125 572.894531 371.433594 573.085938 371.359375 C 574.097656 370.996094 575.132812 370.703125 576.136719 370.324219 C 576.347656 370.242188 576.550781 370.152344 576.761719 370.070312 C 577.753906 369.714844 578.773438 369.421875 579.761719 369.046875 C 579.917969 368.984375 580.070312 368.914062 580.230469 368.855469 C 580.875 368.621094 581.53125 368.425781 582.175781 368.183594 C 582.40625 368.109375 582.632812 368.019531 582.863281 367.945312 C 583.035156 367.878906 583.210938 367.832031 583.382812 367.765625 C 583.402344 367.757812 583.417969 367.75 583.4375 367.742188 C 584.15625 367.511719 584.859375 367.230469 585.578125 366.988281 C 586.777344 366.613281 587.953125 366.148438 589.148438 365.75 C 590.339844 365.371094 591.515625 364.914062 592.703125 364.511719 C 593.671875 364.207031 594.625 363.851562 595.585938 363.511719 L 595.585938 357.597656 C 580.042969 358.6875 563.824219 357.53125 546.695312 353.992188 C 531.738281 350.90625 516.949219 345.1875 501.484375 336.507812 C 481.15625 325.105469 462.125 309.914062 443.71875 295.222656 C 434.429688 287.8125 424.828125 280.144531 415.195312 273.078125 C 410.09375 269.335938 404.859375 265.6875 399.640625 262.238281 C 363.453125 238.292969 324.828125 221.339844 284.835938 211.847656 C 264.179688 206.9375 243.25 204.191406 222.589844 203.558594 C 244.589844 203.878906 266.933594 206.511719 288.980469 211.566406 C 329.328125 220.824219 367.953125 237.445312 403.789062 260.96875 C 409.007812 264.398438 414.234375 268.019531 419.316406 271.738281 C 429.277344 279.023438 439.191406 286.984375 448.777344 294.679688 C 466.78125 309.128906 485.402344 324.070312 505.269531 335.371094 C 520.738281 344.175781 535.515625 349.976562 550.449219 353.101562 C 563.730469 355.886719 576.453125 357.28125 588.71875 357.28125 C 591.027344 357.28125 593.3125 357.203125 595.585938 357.105469 L 595.585938 356.464844 C 581.238281 357.101562 566.3125 355.917969 550.554688 352.613281 C 535.667969 349.496094 520.9375 343.714844 505.523438 334.9375 C 485.683594 323.65625 467.082031 308.726562 449.09375 294.289062 C 439.5 286.589844 429.582031 278.632812 419.609375 271.335938 C 414.523438 267.609375 409.292969 263.984375 404.066406 260.554688 C 368.179688 236.996094 329.496094 220.351562 289.089844 211.078125 C 268.691406 206.398438 248.03125 203.78125 227.625 203.152344 C 249.4375 203.472656 271.523438 205.992188 293.234375 210.800781 C 333.984375 219.820312 372.667969 236.132812 408.214844 259.289062 C 413.46875 262.710938 418.691406 266.3125 423.738281 269.992188 C 434.027344 277.503906 444.25 285.757812 454.132812 293.738281 C 471.730469 307.941406 489.921875 322.625 509.304688 333.804688 C 524.734375 342.707031 539.449219 348.566406 554.304688 351.726562 C 567.664062 354.566406 580.453125 355.988281 592.773438 355.988281 C 593.71875 355.988281 594.648438 355.945312 595.585938 355.917969 L 595.585938 355.257812 C 582.425781 355.515625 568.777344 354.289062 554.40625 351.238281 C 539.609375 348.09375 524.9375 342.246094 509.554688 333.371094 C 490.203125 322.210938 472.03125 307.539062 454.449219 293.351562 C 444.558594 285.363281 434.335938 277.109375 424.03125 269.589844 C 418.976562 265.902344 413.75 262.296875 408.488281 258.867188 C 372.890625 235.679688 334.152344 219.34375 293.34375 210.3125 C 273.140625 205.839844 252.613281 203.347656 232.289062 202.75 C 254.035156 203.046875 275.980469 205.445312 297.492188 210.035156 C 338.632812 218.808594 377.375 234.8125 412.636719 257.605469 C 417.863281 260.976562 423.082031 264.558594 428.152344 268.246094 C 438.765625 275.976562 449.28125 284.515625 459.449219 292.769531 C 476.644531 306.734375 494.421875 321.171875 513.335938 332.234375 C 528.714844 341.234375 543.378906 347.160156 558.160156 350.347656 C 571.15625 353.148438 583.59375 354.570312 595.585938 354.664062 L 595.585938 354.003906 C 583.621094 353.9375 571.242188 352.65625 558.265625 349.859375 C 543.539062 346.683594 528.921875 340.777344 513.585938 331.800781 C 494.710938 320.757812 476.945312 306.332031 459.765625 292.382812 C 449.59375 284.125 439.070312 275.582031 428.445312 267.84375 C 423.371094 264.152344 418.140625 260.5625 412.914062 257.183594 C 377.597656 234.363281 338.796875 218.332031 297.59375 209.546875 C 273.910156 204.496094 249.695312 202.125 225.796875 202.269531 C 299.351562 200.585938 372.664062 223.003906 432.574219 266.503906 C 443.496094 274.4375 454.289062 283.253906 464.722656 291.78125 C 494.222656 315.886719 524.726562 340.808594 562.015625 348.964844 C 573.632812 351.511719 584.785156 352.894531 595.585938 353.253906 L 595.585938 352.695312 C 584.824219 352.363281 573.710938 351.015625 562.125 348.480469 C 524.949219 340.347656 494.492188 315.460938 465.042969 291.394531 Z M 99.847656 214.351562 C 99.695312 214.34375 99.539062 214.332031 99.386719 214.320312 C 99.667969 214.261719 99.960938 214.238281 100.238281 214.179688 C 100.3125 214.183594 100.390625 214.1875 100.46875 214.191406 C 100.257812 214.238281 100.054688 214.304688 99.847656 214.351562 Z M 169.679688 208.386719 C 196.078125 209.277344 219.800781 214.847656 237.914062 220.765625 C 273.730469 232.460938 309.5625 251.652344 350.675781 281.167969 C 355.726562 284.792969 360.980469 288.664062 366.289062 292.660156 C 371.148438 296.324219 376.082031 300.105469 380.851562 303.757812 C 404.863281 322.15625 429.691406 341.175781 456.882812 354.199219 C 472.554688 361.726562 488.46875 366.917969 504.179688 369.644531 C 526.457031 373.511719 548.070312 373.707031 568.785156 370.261719 C 546.894531 374.402344 524.023438 374.5625 500.410156 370.527344 C 484.660156 367.84375 468.734375 362.726562 453.066406 355.320312 C 425.152344 342.140625 399.710938 322.679688 375.109375 303.863281 C 370.867188 300.617188 366.484375 297.265625 362.167969 294.007812 C 356.625 289.820312 351.515625 286.042969 346.542969 282.449219 C 304.972656 252.386719 269.152344 232.878906 233.816406 221.054688 C 212.683594 213.984375 191.355469 209.78125 170.414062 208.554688 C 169.925781 208.527344 169.453125 208.550781 168.96875 208.527344 C 169.207031 208.480469 169.445312 208.433594 169.679688 208.386719 Z M 166.65625 208.980469 C 188.605469 209.878906 211.300781 214.050781 233.660156 221.53125 C 268.945312 233.335938 304.71875 252.824219 346.25 282.851562 C 351.21875 286.441406 356.328125 290.222656 361.871094 294.402344 C 366.183594 297.664062 370.566406 301.015625 374.800781 304.257812 C 399.425781 323.09375 424.886719 342.570312 452.851562 355.769531 C 468.558594 363.199219 484.535156 368.328125 500.324219 371.019531 C 522.613281 374.832031 544.261719 374.992188 565.035156 371.53125 C 543.074219 375.679688 520.167969 375.871094 496.550781 371.90625 C 480.699219 369.25 464.710938 364.195312 449.035156 356.886719 C 420.300781 343.523438 394.195312 323.574219 368.949219 304.28125 C 365.21875 301.425781 361.488281 298.578125 357.753906 295.75 C 352.152344 291.511719 347.035156 287.710938 342.117188 284.132812 C 299.546875 253.128906 264.832031 233.910156 229.566406 221.828125 C 208.367188 214.558594 186.890625 210.351562 166.039062 209.101562 C 166.242188 209.0625 166.449219 209.023438 166.65625 208.980469 Z M 164.265625 209.453125 C 185.613281 210.558594 207.660156 214.84375 229.402344 222.296875 C 264.617188 234.363281 299.292969 253.558594 341.824219 284.535156 C 346.738281 288.113281 351.851562 291.910156 357.449219 296.148438 C 361.183594 298.972656 364.914062 301.824219 368.648438 304.675781 C 393.914062 323.988281 420.042969 343.953125 448.820312 357.335938 C 464.542969 364.667969 480.570312 369.734375 496.464844 372.398438 C 518.773438 376.140625 540.460938 376.269531 561.300781 372.796875 C 539.273438 376.953125 516.328125 377.183594 492.691406 373.28125 C 476.761719 370.660156 460.714844 365.671875 444.996094 358.453125 C 415.453125 344.914062 388.691406 324.476562 362.808594 304.714844 C 359.648438 302.300781 356.492188 299.894531 353.335938 297.496094 C 347.671875 293.199219 342.554688 289.382812 337.695312 285.820312 C 308.726562 264.574219 269.777344 238.195312 225.3125 222.59375 C 204.578125 215.316406 183.609375 211.066406 163.226562 209.65625 C 163.570312 209.582031 163.921875 209.523438 164.265625 209.453125 Z M 161.484375 210 C 182.351562 211.277344 203.875 215.597656 225.148438 223.0625 C 269.546875 238.640625 308.457031 265 337.398438 286.222656 C 342.257812 289.78125 347.371094 293.597656 353.03125 297.894531 C 356.191406 300.289062 359.34375 302.699219 362.503906 305.113281 C 388.410156 324.890625 415.195312 345.347656 444.789062 358.90625 C 460.546875 366.144531 476.636719 371.144531 492.613281 373.777344 C 514.921875 377.453125 536.640625 377.546875 557.535156 374.066406 C 535.453125 378.226562 512.476562 378.492188 488.832031 374.660156 C 472.816406 372.074219 456.707031 367.144531 440.960938 360.019531 C 410.546875 346.289062 383.082031 325.320312 356.519531 305.039062 C 353.984375 303.101562 351.449219 301.167969 348.917969 299.242188 C 343.210938 294.902344 338.089844 291.0625 333.269531 287.5 C 302.183594 264.542969 264.539062 238.96875 221.058594 223.359375 C 200.816406 216.089844 180.378906 211.789062 160.488281 210.214844 C 160.816406 210.136719 161.152344 210.070312 161.484375 210 Z M 154.21875 211.777344 C 173.320312 213.628906 192.917969 218.058594 212.378906 225.363281 C 254.191406 241.054688 290.792969 266.3125 324.121094 291.269531 C 328.847656 294.808594 333.816406 298.574219 339.777344 303.125 L 343.375 305.875 C 371.390625 327.292969 400.359375 349.441406 432.691406 363.613281 C 448.519531 370.5625 464.789062 375.375 481.042969 377.910156 C 503.03125 381.347656 524.507812 381.347656 545.261719 378.003906 C 523.21875 381.972656 500.210938 382.320312 477.261719 378.796875 C 460.964844 376.304688 444.675781 371.566406 428.859375 364.722656 C 395.582031 350.355469 365.851562 327.589844 337.097656 305.570312 L 335.664062 304.472656 C 331.003906 300.910156 325.503906 296.707031 319.996094 292.554688 C 286.265625 267.121094 249.386719 241.417969 208.300781 225.664062 C 189.867188 218.59375 171.328125 214.132812 153.210938 212.03125 C 153.546875 211.945312 153.882812 211.859375 154.21875 211.777344 Z M 148.0625 212.023438 C 148.066406 212.023438 148.070312 212.023438 148.074219 212.023438 C 147.902344 212.066406 147.730469 212.117188 147.558594 212.160156 C 147.726562 212.121094 147.894531 212.0625 148.0625 212.023438 Z M 145.203125 210.972656 C 145.214844 210.972656 145.226562 210.972656 145.238281 210.972656 C 144.976562 211.03125 144.710938 211.101562 144.449219 211.164062 C 144.445312 211.164062 144.445312 211.164062 144.441406 211.160156 C 144.695312 211.105469 144.949219 211.027344 145.203125 210.972656 Z M 144.558594 212.476562 C 144.300781 212.546875 144.042969 212.625 143.789062 212.691406 C 143.773438 212.6875 143.757812 212.6875 143.746094 212.6875 C 144.015625 212.617188 144.285156 212.546875 144.558594 212.476562 Z M 142.523438 213.039062 C 142.527344 213.039062 142.527344 213.039062 142.53125 213.039062 C 142.386719 213.078125 142.238281 213.121094 142.089844 213.160156 C 142.234375 213.125 142.378906 213.074219 142.523438 213.039062 Z M 141.34375 211.375 C 141.40625 211.378906 141.464844 211.375 141.527344 211.378906 C 141.28125 211.4375 141.03125 211.503906 140.78125 211.5625 C 140.738281 211.5625 140.695312 211.558594 140.652344 211.554688 C 140.882812 211.5 141.113281 211.429688 141.34375 211.375 Z M 141.242188 212.875 C 141.25 212.878906 141.257812 212.878906 141.265625 212.878906 C 140.890625 212.980469 140.519531 213.101562 140.144531 213.203125 C 140.082031 213.195312 140.019531 213.1875 139.957031 213.179688 C 140.382812 213.066406 140.816406 212.988281 141.242188 212.875 Z M 140.976562 214.832031 C 140.769531 214.894531 140.5625 214.960938 140.355469 215.023438 C 140.558594 214.964844 140.761719 214.890625 140.964844 214.832031 C 140.96875 214.832031 140.972656 214.832031 140.976562 214.832031 Z M 139.183594 211.933594 C 139.214844 211.9375 139.246094 211.9375 139.277344 211.941406 C 139.023438 212.003906 138.765625 212.070312 138.507812 212.132812 C 138.484375 212.132812 138.457031 212.128906 138.429688 212.128906 C 138.683594 212.066406 138.933594 211.992188 139.183594 211.933594 Z M 138.75 213.53125 C 138.808594 213.535156 138.867188 213.546875 138.925781 213.550781 C 138.539062 213.660156 138.152344 213.777344 137.765625 213.886719 C 137.714844 213.878906 137.667969 213.875 137.617188 213.867188 C 137.996094 213.761719 138.371094 213.632812 138.75 213.53125 Z M 137.414062 211.789062 C 137.496094 211.796875 137.578125 211.804688 137.660156 211.8125 C 137.410156 211.871094 137.164062 211.941406 136.917969 212.003906 C 136.839844 211.996094 136.765625 211.988281 136.6875 211.984375 C 136.929688 211.925781 137.171875 211.847656 137.414062 211.789062 Z M 137.382812 215.410156 C 137.402344 215.414062 137.417969 215.417969 137.4375 215.417969 C 136.957031 215.5625 136.484375 215.726562 136.003906 215.871094 C 135.980469 215.867188 135.953125 215.863281 135.925781 215.855469 C 136.414062 215.710938 136.894531 215.554688 137.382812 215.410156 Z M 135.367188 214.574219 C 135.335938 214.570312 135.304688 214.566406 135.273438 214.5625 C 135.667969 214.449219 136.054688 214.324219 136.449219 214.214844 C 136.488281 214.21875 136.53125 214.222656 136.570312 214.230469 C 136.167969 214.34375 135.769531 214.457031 135.367188 214.574219 Z M 136.40625 213.707031 C 136.335938 213.699219 136.265625 213.6875 136.195312 213.679688 C 136.625 213.5625 137.054688 213.480469 137.484375 213.367188 C 137.5 213.367188 137.515625 213.371094 137.53125 213.375 C 137.152344 213.476562 136.78125 213.601562 136.40625 213.707031 Z M 136.953125 212.507812 C 136.96875 212.511719 136.984375 212.511719 136.996094 212.511719 C 136.734375 212.582031 136.46875 212.640625 136.203125 212.710938 C 136.195312 212.710938 136.1875 212.710938 136.179688 212.710938 C 136.4375 212.644531 136.695312 212.574219 136.953125 212.507812 Z M 135.246094 212.367188 C 135.308594 212.375 135.375 212.378906 135.441406 212.382812 C 135.183594 212.449219 134.929688 212.515625 134.675781 212.582031 C 134.617188 212.578125 134.558594 212.574219 134.5 212.566406 C 134.746094 212.507812 134.996094 212.429688 135.246094 212.367188 Z M 134.964844 214.019531 C 135.054688 214.03125 135.144531 214.042969 135.234375 214.054688 C 134.847656 214.164062 134.457031 214.289062 134.070312 214.398438 C 133.988281 214.386719 133.90625 214.378906 133.824219 214.367188 C 134.207031 214.257812 134.585938 214.125 134.964844 214.019531 Z M 132.292969 216.515625 C 132.234375 216.503906 132.179688 216.492188 132.121094 216.480469 C 132.679688 216.308594 133.238281 216.144531 133.800781 215.972656 C 133.832031 215.980469 133.863281 215.984375 133.894531 215.992188 C 133.359375 216.15625 132.828125 216.347656 132.292969 216.515625 Z M 132.464844 216.988281 C 132.351562 217.023438 132.238281 217.058594 132.125 217.09375 C 132.234375 217.058594 132.34375 217.019531 132.457031 216.988281 C 132.457031 216.988281 132.460938 216.988281 132.464844 216.988281 Z M 59.117188 249.300781 C 77.425781 237.921875 96.714844 228.484375 116.53125 221.238281 C 96.742188 228.535156 77.449219 237.976562 59.117188 249.300781 Z M 120.5 220.390625 C 105.625 225.703125 91.019531 232.183594 76.878906 239.707031 C 91.035156 232.136719 105.632812 225.65625 120.5 220.390625 Z M 119.863281 220.078125 C 121.628906 219.457031 123.394531 218.820312 125.167969 218.234375 C 125.207031 218.242188 125.242188 218.25 125.28125 218.257812 C 123.472656 218.863281 121.664062 219.4375 119.863281 220.078125 Z M 125.039062 217.753906 C 124.9375 217.730469 124.835938 217.710938 124.738281 217.6875 C 125.34375 217.492188 125.957031 217.339844 126.5625 217.148438 C 126.609375 217.15625 126.652344 217.164062 126.699219 217.171875 C 126.144531 217.355469 125.59375 217.566406 125.039062 217.753906 Z M 117.0625 214.234375 C 116.921875 214.21875 116.777344 214.203125 116.636719 214.1875 C 117.019531 214.085938 117.421875 214.023438 117.808594 213.925781 C 117.882812 213.929688 117.960938 213.9375 118.035156 213.945312 C 117.710938 214.03125 117.386719 214.144531 117.0625 214.234375 Z M 117.824219 214.734375 C 117.40625 214.855469 116.988281 214.976562 116.570312 215.101562 C 116.410156 215.078125 116.25 215.066406 116.089844 215.046875 C 116.492188 214.933594 116.890625 214.796875 117.292969 214.6875 C 117.472656 214.707031 117.648438 214.714844 117.824219 214.734375 Z M 119.144531 214.871094 C 119.261719 214.882812 119.378906 214.90625 119.496094 214.917969 C 119.046875 215.050781 118.59375 215.167969 118.140625 215.304688 C 118.039062 215.289062 117.929688 215.265625 117.828125 215.253906 C 118.265625 215.125 118.707031 214.992188 119.144531 214.871094 Z M 120.730469 215.09375 C 120.800781 215.101562 120.871094 215.113281 120.941406 215.121094 C 120.457031 215.265625 119.972656 215.375 119.488281 215.519531 C 119.433594 215.511719 119.375 215.5 119.316406 215.492188 C 119.789062 215.355469 120.257812 215.226562 120.730469 215.09375 Z M 120.136719 214.582031 C 120.527344 214.472656 120.910156 214.347656 121.304688 214.242188 C 121.453125 214.257812 121.601562 214.265625 121.75 214.285156 C 121.34375 214.398438 120.9375 214.511719 120.535156 214.625 C 120.398438 214.609375 120.269531 214.597656 120.136719 214.582031 Z M 122.191406 215.296875 C 122.234375 215.304688 122.273438 215.3125 122.316406 215.316406 C 121.871094 215.449219 121.433594 215.625 120.988281 215.761719 C 120.886719 215.746094 120.785156 215.726562 120.683594 215.710938 C 121.183594 215.5625 121.6875 215.445312 122.191406 215.296875 Z M 127.371094 214.988281 C 127.507812 215.003906 127.644531 215.023438 127.78125 215.042969 C 127.316406 215.183594 126.855469 215.34375 126.386719 215.484375 C 126.25 215.460938 126.113281 215.441406 125.976562 215.417969 C 126.441406 215.28125 126.90625 215.121094 127.371094 214.988281 Z M 127.332031 214.476562 C 127.730469 214.363281 128.132812 214.265625 128.53125 214.15625 C 128.542969 214.15625 128.554688 214.160156 128.566406 214.160156 C 128.160156 214.277344 127.746094 214.359375 127.339844 214.476562 C 127.335938 214.476562 127.335938 214.476562 127.332031 214.476562 Z M 126.648438 215.925781 C 126.734375 215.941406 126.820312 215.949219 126.910156 215.964844 C 126.371094 216.128906 125.835938 216.285156 125.296875 216.457031 C 125.222656 216.441406 125.152344 216.433594 125.078125 216.421875 C 125.601562 216.257812 126.121094 216.085938 126.648438 215.925781 Z M 123.980469 216.242188 C 123.863281 216.222656 123.742188 216.207031 123.621094 216.1875 C 124.113281 216.035156 124.601562 215.855469 125.09375 215.707031 C 125.230469 215.726562 125.363281 215.742188 125.5 215.765625 C 124.992188 215.921875 124.488281 216.085938 123.980469 216.242188 Z M 124.886719 215.246094 C 124.792969 215.234375 124.699219 215.214844 124.605469 215.203125 C 125.097656 215.058594 125.59375 214.949219 126.082031 214.808594 C 126.121094 214.8125 126.152344 214.820312 126.1875 214.824219 C 125.753906 214.953125 125.324219 215.117188 124.886719 215.246094 Z M 123.382812 215.011719 C 123.355469 215.003906 123.324219 215 123.292969 214.996094 C 123.753906 214.863281 124.21875 214.746094 124.679688 214.617188 C 124.71875 214.621094 124.761719 214.628906 124.800781 214.632812 C 124.332031 214.769531 123.855469 214.871094 123.382812 215.011719 Z M 123.535156 215.488281 C 123.679688 215.507812 123.820312 215.527344 123.964844 215.546875 C 123.488281 215.695312 123.015625 215.863281 122.539062 216.011719 C 122.375 215.984375 122.214844 215.960938 122.050781 215.933594 C 122.546875 215.78125 123.039062 215.636719 123.535156 215.488281 Z M 121.234375 216.207031 C 121.398438 216.234375 121.5625 216.25 121.726562 216.277344 C 121.203125 216.441406 120.683594 216.621094 120.160156 216.785156 C 120.015625 216.761719 119.867188 216.742188 119.722656 216.714844 C 120.226562 216.554688 120.726562 216.363281 121.234375 216.207031 Z M 122.847656 216.4375 C 122.957031 216.457031 123.066406 216.480469 123.175781 216.5 C 122.628906 216.671875 122.078125 216.839844 121.535156 217.015625 C 121.433594 217 121.335938 216.980469 121.234375 216.964844 C 121.773438 216.792969 122.308594 216.605469 122.847656 216.4375 Z M 124.207031 216.695312 C 124.269531 216.707031 124.332031 216.722656 124.394531 216.730469 C 123.824219 216.914062 123.25 217.070312 122.679688 217.257812 C 122.628906 217.246094 122.578125 217.234375 122.53125 217.226562 C 123.089844 217.046875 123.648438 216.871094 124.207031 216.695312 Z M 125.445312 216.933594 C 125.460938 216.9375 125.480469 216.941406 125.496094 216.945312 C 124.925781 217.128906 124.351562 217.300781 123.78125 217.488281 C 123.753906 217.484375 123.722656 217.476562 123.691406 217.46875 C 124.273438 217.28125 124.863281 217.117188 125.445312 216.933594 Z M 127.675781 217.359375 C 127.734375 217.371094 127.792969 217.382812 127.847656 217.394531 C 127.269531 217.582031 126.691406 217.785156 126.113281 217.976562 C 126.070312 217.96875 126.027344 217.960938 125.984375 217.949219 C 126.550781 217.765625 127.109375 217.542969 127.675781 217.359375 Z M 127.507812 216.890625 C 127.492188 216.886719 127.476562 216.882812 127.460938 216.878906 C 127.644531 216.824219 127.828125 216.773438 128.011719 216.714844 C 127.84375 216.769531 127.679688 216.835938 127.507812 216.890625 Z M 126.421875 216.667969 C 126.402344 216.664062 126.378906 216.660156 126.355469 216.652344 C 126.902344 216.484375 127.453125 216.320312 128 216.152344 C 128.035156 216.15625 128.066406 216.164062 128.101562 216.171875 C 127.542969 216.34375 126.980469 216.492188 126.421875 216.667969 Z M 127.761719 215.699219 C 127.671875 215.6875 127.582031 215.671875 127.492188 215.660156 C 127.976562 215.511719 128.453125 215.34375 128.9375 215.203125 C 129.042969 215.21875 129.144531 215.230469 129.25 215.246094 C 128.753906 215.394531 128.257812 215.546875 127.761719 215.699219 Z M 129.878906 214.339844 C 129.910156 214.34375 129.941406 214.347656 129.976562 214.351562 C 129.613281 214.453125 129.257812 214.585938 128.894531 214.691406 C 128.8125 214.679688 128.730469 214.667969 128.644531 214.65625 C 129.054688 214.539062 129.46875 214.453125 129.878906 214.339844 Z M 129.785156 213.824219 C 130.144531 213.726562 130.503906 213.628906 130.867188 213.535156 C 130.894531 213.539062 130.925781 213.539062 130.957031 213.542969 C 130.585938 213.644531 130.214844 213.726562 129.84375 213.832031 C 129.824219 213.828125 129.804688 213.824219 129.785156 213.824219 Z M 129.015625 215.898438 C 128.972656 215.890625 128.929688 215.886719 128.886719 215.878906 C 129.402344 215.722656 129.914062 215.558594 130.425781 215.40625 C 130.484375 215.417969 130.539062 215.421875 130.59375 215.429688 C 130.070312 215.589844 129.542969 215.738281 129.015625 215.898438 Z M 130.273438 216.578125 C 129.730469 216.75 129.191406 216.949219 128.644531 217.125 C 128.585938 217.113281 128.523438 217.101562 128.464844 217.085938 C 129.050781 216.902344 129.640625 216.753906 130.230469 216.570312 C 130.246094 216.574219 130.257812 216.574219 130.273438 216.578125 Z M 130.386719 214.898438 C 130.273438 214.878906 130.164062 214.867188 130.046875 214.851562 C 130.410156 214.746094 130.773438 214.613281 131.136719 214.507812 C 131.257812 214.523438 131.378906 214.542969 131.5 214.558594 C 131.128906 214.664062 130.757812 214.789062 130.386719 214.898438 Z M 131.773438 215.601562 C 131.777344 215.601562 131.78125 215.601562 131.785156 215.605469 C 131.550781 215.675781 131.308594 215.734375 131.070312 215.808594 C 131.304688 215.738281 131.539062 215.671875 131.773438 215.601562 Z M 131.746094 215.089844 C 131.6875 215.078125 131.625 215.070312 131.5625 215.058594 C 131.9375 214.949219 132.308594 214.824219 132.683594 214.714844 C 132.757812 214.726562 132.832031 214.734375 132.902344 214.746094 C 132.515625 214.859375 132.132812 214.972656 131.746094 215.089844 Z M 134.109375 214.910156 C 134.128906 214.910156 134.152344 214.914062 134.175781 214.917969 C 133.738281 215.046875 133.300781 215.164062 132.863281 215.292969 C 132.851562 215.292969 132.839844 215.289062 132.828125 215.289062 C 133.253906 215.164062 133.679688 215.03125 134.109375 214.910156 Z M 134.929688 216.179688 C 134.949219 216.183594 134.96875 216.1875 134.988281 216.191406 C 134.429688 216.363281 133.871094 216.542969 133.3125 216.71875 C 133.304688 216.71875 133.296875 216.71875 133.289062 216.714844 C 133.835938 216.546875 134.378906 216.347656 134.929688 216.179688 Z M 132.640625 214.207031 C 132.5625 214.195312 132.488281 214.1875 132.410156 214.175781 C 132.839844 214.054688 133.273438 213.96875 133.703125 213.851562 C 133.726562 213.855469 133.75 213.859375 133.773438 213.859375 C 133.394531 213.96875 133.019531 214.097656 132.640625 214.207031 Z M 133.1875 212.28125 C 133.28125 212.257812 133.378906 212.246094 133.476562 212.222656 C 133.570312 212.226562 133.664062 212.238281 133.757812 212.246094 C 133.511719 212.308594 133.269531 212.378906 133.023438 212.441406 C 132.914062 212.433594 132.804688 212.425781 132.695312 212.414062 C 132.859375 212.375 133.023438 212.320312 133.1875 212.28125 Z M 133.058594 212.949219 C 133.105469 212.953125 133.152344 212.957031 133.203125 212.964844 C 132.925781 213.035156 132.648438 213.101562 132.375 213.175781 C 132.339844 213.171875 132.300781 213.167969 132.265625 213.164062 C 132.53125 213.09375 132.792969 213.019531 133.058594 212.949219 Z M 131.289062 212.800781 C 131.386719 212.808594 131.484375 212.820312 131.582031 212.824219 C 131.324219 212.894531 131.066406 212.964844 130.808594 213.03125 C 130.714844 213.023438 130.625 213.019531 130.535156 213.007812 C 130.785156 212.945312 131.035156 212.863281 131.289062 212.800781 Z M 128.765625 212.824219 C 129.03125 212.757812 129.304688 212.71875 129.570312 212.65625 C 129.664062 212.660156 129.753906 212.671875 129.84375 212.679688 C 129.59375 212.742188 129.34375 212.820312 129.09375 212.882812 C 128.957031 212.871094 128.816406 212.859375 128.675781 212.847656 C 128.707031 212.839844 128.734375 212.832031 128.765625 212.824219 Z M 129.15625 213.386719 C 129.238281 213.394531 129.316406 213.398438 129.398438 213.40625 C 129.097656 213.488281 128.792969 213.566406 128.492188 213.648438 C 128.425781 213.640625 128.359375 213.628906 128.296875 213.621094 C 128.582031 213.546875 128.867188 213.460938 129.15625 213.386719 Z M 127.332031 213.226562 C 127.460938 213.238281 127.589844 213.25 127.71875 213.261719 C 127.457031 213.332031 127.195312 213.40625 126.929688 213.476562 C 126.808594 213.464844 126.683594 213.457031 126.5625 213.445312 C 126.820312 213.378906 127.074219 213.292969 127.332031 213.226562 Z M 126.984375 213.984375 C 127.046875 213.988281 127.109375 213.992188 127.175781 214 C 126.800781 214.105469 126.425781 214.195312 126.050781 214.300781 C 126 214.292969 125.949219 214.285156 125.902344 214.28125 C 126.261719 214.179688 126.621094 214.082031 126.984375 213.984375 Z M 125.917969 213.105469 C 125.664062 213.171875 125.410156 213.253906 125.15625 213.320312 C 125.007812 213.304688 124.859375 213.292969 124.707031 213.28125 C 125.015625 213.203125 125.335938 213.15625 125.644531 213.082031 C 125.734375 213.089844 125.824219 213.097656 125.917969 213.105469 Z M 124.695312 211.851562 C 124.71875 211.851562 124.738281 211.851562 124.757812 211.851562 C 124.691406 211.867188 124.628906 211.882812 124.5625 211.894531 C 124.535156 211.894531 124.507812 211.894531 124.476562 211.894531 C 124.550781 211.878906 124.625 211.863281 124.695312 211.851562 Z M 125.214844 213.824219 C 125.328125 213.835938 125.441406 213.84375 125.554688 213.855469 C 125.25 213.941406 124.945312 214.019531 124.640625 214.105469 C 124.546875 214.09375 124.453125 214.078125 124.359375 214.066406 C 124.644531 213.992188 124.929688 213.902344 125.214844 213.824219 Z M 123.808594 213.699219 C 123.570312 213.765625 123.332031 213.839844 123.09375 213.902344 C 122.933594 213.886719 122.777344 213.878906 122.617188 213.859375 C 122.851562 213.800781 123.082031 213.71875 123.316406 213.65625 C 123.480469 213.671875 123.644531 213.683594 123.808594 213.699219 Z M 122.328125 212.308594 C 122.4375 212.3125 122.550781 212.320312 122.660156 212.324219 C 122.582031 212.339844 122.507812 212.359375 122.429688 212.375 C 122.3125 212.367188 122.191406 212.367188 122.074219 212.359375 C 122.15625 212.34375 122.242188 212.328125 122.328125 212.308594 Z M 123.144531 214.410156 C 123.238281 214.421875 123.328125 214.429688 123.417969 214.441406 C 122.976562 214.566406 122.535156 214.675781 122.09375 214.804688 C 122.011719 214.796875 121.933594 214.785156 121.851562 214.777344 C 122.285156 214.65625 122.714844 214.527344 123.144531 214.410156 Z M 121.695312 213.511719 C 121.78125 213.519531 121.867188 213.527344 121.953125 213.535156 C 121.722656 213.597656 121.492188 213.675781 121.261719 213.738281 C 121.121094 213.722656 120.984375 213.710938 120.84375 213.699219 C 121.125 213.628906 121.414062 213.582031 121.695312 213.511719 Z M 120.015625 212.769531 C 120.199219 212.777344 120.382812 212.785156 120.566406 212.792969 C 120.441406 212.824219 120.3125 212.847656 120.1875 212.878906 C 120.039062 212.867188 119.886719 212.851562 119.742188 212.839844 C 119.832031 212.820312 119.925781 212.789062 120.015625 212.769531 Z M 119.949219 214.117188 C 119.582031 214.21875 119.21875 214.335938 118.851562 214.4375 C 118.675781 214.417969 118.5 214.398438 118.324219 214.378906 C 118.675781 214.285156 119.019531 214.15625 119.367188 214.066406 C 119.5625 214.082031 119.753906 214.101562 119.949219 214.117188 Z M 118.054688 213.257812 C 118.183594 213.261719 118.308594 213.265625 118.433594 213.273438 C 118.21875 213.328125 117.996094 213.367188 117.78125 213.417969 C 117.6875 213.410156 117.59375 213.402344 117.5 213.394531 C 117.6875 213.351562 117.871094 213.300781 118.054688 213.257812 Z M 116.5 212.625 C 116.589844 212.628906 116.683594 212.636719 116.773438 212.636719 C 116.691406 212.65625 116.613281 212.675781 116.53125 212.695312 C 116.441406 212.6875 116.355469 212.6875 116.265625 212.683594 C 116.34375 212.667969 116.421875 212.640625 116.5 212.625 Z M 116.019531 213.761719 C 116.078125 213.765625 116.136719 213.773438 116.191406 213.777344 C 115.917969 213.847656 115.636719 213.890625 115.363281 213.960938 C 115.296875 213.980469 115.234375 214.003906 115.171875 214.023438 C 115.125 214.019531 115.074219 214.011719 115.027344 214.007812 C 115.359375 213.921875 115.691406 213.839844 116.019531 213.761719 Z M 114.511719 213.105469 C 114.585938 213.109375 114.660156 213.113281 114.734375 213.117188 C 114.683594 213.128906 114.632812 213.140625 114.582031 213.152344 C 114.511719 213.144531 114.4375 213.144531 114.363281 213.140625 C 114.414062 213.132812 114.460938 213.117188 114.511719 213.105469 Z M 115.304688 214.5 C 115.527344 214.523438 115.746094 214.542969 115.964844 214.5625 C 115.589844 214.667969 115.214844 214.792969 114.835938 214.902344 C 114.632812 214.875 114.433594 214.855469 114.230469 214.832031 C 114.589844 214.734375 114.945312 214.597656 115.304688 214.5 Z M 114.003906 214.378906 C 113.667969 214.472656 113.335938 214.59375 113 214.6875 C 112.835938 214.671875 112.667969 214.648438 112.503906 214.632812 C 112.886719 214.527344 113.269531 214.445312 113.652344 214.347656 C 113.769531 214.359375 113.886719 214.371094 114.003906 214.378906 Z M 112.351562 213.015625 C 112.464844 213.019531 112.582031 213.027344 112.695312 213.03125 C 112.648438 213.039062 112.601562 213.050781 112.554688 213.0625 C 112.441406 213.058594 112.332031 213.054688 112.21875 213.046875 C 112.261719 213.039062 112.304688 213.023438 112.351562 213.015625 Z M 112.605469 213.566406 C 112.667969 213.566406 112.726562 213.570312 112.785156 213.574219 C 112.515625 213.636719 112.242188 213.695312 111.972656 213.761719 C 111.925781 213.757812 111.875 213.757812 111.824219 213.753906 C 112.089844 213.695312 112.34375 213.621094 112.605469 213.566406 Z M 110.496094 213.472656 C 110.597656 213.476562 110.695312 213.484375 110.796875 213.488281 C 110.578125 213.535156 110.359375 213.59375 110.140625 213.644531 C 110.050781 213.636719 109.960938 213.632812 109.875 213.625 C 110.082031 213.582031 110.285156 213.515625 110.496094 213.472656 Z M 110.539062 214.0625 C 110.582031 214.066406 110.625 214.066406 110.667969 214.070312 C 110.332031 214.15625 109.988281 214.21875 109.652344 214.308594 C 109.621094 214.304688 109.589844 214.304688 109.554688 214.300781 C 109.882812 214.222656 110.210938 214.140625 110.539062 214.0625 Z M 108.445312 213.382812 C 108.539062 213.386719 108.636719 213.394531 108.730469 213.394531 C 108.558594 213.433594 108.394531 213.484375 108.226562 213.519531 C 108.089844 213.515625 107.953125 213.5 107.820312 213.496094 C 108.027344 213.453125 108.238281 213.425781 108.445312 213.382812 Z M 108.480469 213.972656 C 108.566406 213.976562 108.652344 213.976562 108.738281 213.984375 C 108.453125 214.050781 108.167969 214.117188 107.882812 214.1875 C 107.808594 214.183594 107.734375 214.179688 107.660156 214.175781 C 107.933594 214.109375 108.203125 214.03125 108.480469 213.972656 Z M 104.332031 213.785156 C 104.421875 213.789062 104.507812 213.792969 104.597656 213.796875 C 104.414062 213.839844 104.238281 213.894531 104.058594 213.933594 C 103.90625 213.925781 103.753906 213.914062 103.601562 213.902344 C 103.839844 213.855469 104.09375 213.835938 104.332031 213.785156 Z M 101.863281 214.488281 C 101.714844 214.476562 101.570312 214.46875 101.421875 214.460938 C 101.671875 214.40625 101.90625 214.324219 102.15625 214.269531 C 102.320312 214.277344 102.484375 214.285156 102.644531 214.292969 C 102.382812 214.355469 102.125 214.425781 101.863281 214.488281 Z M 103.773438 214.621094 C 103.667969 214.609375 103.566406 214.605469 103.460938 214.597656 C 103.761719 214.527344 104.054688 214.4375 104.359375 214.371094 C 104.480469 214.378906 104.597656 214.378906 104.71875 214.386719 C 104.402344 214.464844 104.085938 214.539062 103.773438 214.621094 Z M 105.5625 214.75 C 105.511719 214.742188 105.460938 214.734375 105.414062 214.730469 C 105.410156 214.730469 105.410156 214.730469 105.40625 214.730469 C 105.753906 214.644531 106.097656 214.558594 106.445312 214.472656 C 106.507812 214.476562 106.566406 214.488281 106.628906 214.492188 C 106.273438 214.582031 105.914062 214.65625 105.5625 214.75 Z M 106.019531 214.066406 C 105.898438 214.058594 105.78125 214.050781 105.660156 214.042969 C 105.882812 213.992188 106.097656 213.921875 106.320312 213.875 C 106.453125 213.878906 106.585938 213.886719 106.71875 213.894531 C 106.484375 213.949219 106.253906 214.007812 106.019531 214.066406 Z M 107.03125 214.921875 C 107.019531 214.921875 107.007812 214.917969 106.996094 214.917969 C 107.378906 214.816406 107.773438 214.734375 108.160156 214.636719 C 108.179688 214.636719 108.203125 214.640625 108.222656 214.644531 C 107.832031 214.75 107.421875 214.8125 107.03125 214.921875 Z M 108.910156 215.144531 C 108.769531 215.128906 108.628906 215.109375 108.484375 215.09375 C 108.90625 214.980469 109.347656 214.902344 109.773438 214.789062 C 109.839844 214.796875 109.902344 214.804688 109.96875 214.808594 C 109.613281 214.910156 109.265625 215.042969 108.910156 215.144531 Z M 110.796875 215.367188 C 110.570312 215.339844 110.34375 215.3125 110.121094 215.285156 C 110.4375 215.195312 110.75 215.074219 111.070312 214.988281 C 111.140625 214.96875 111.210938 214.953125 111.28125 214.933594 C 111.515625 214.957031 111.746094 214.976562 111.980469 215 C 111.585938 215.117188 111.191406 215.25 110.796875 215.367188 Z M 112.578125 215.578125 C 112.390625 215.550781 112.207031 215.535156 112.019531 215.511719 C 112.441406 215.390625 112.855469 215.242188 113.277344 215.125 C 113.480469 215.148438 113.683594 215.160156 113.890625 215.183594 C 113.453125 215.3125 113.015625 215.445312 112.578125 215.578125 Z M 114.164062 215.800781 C 114.035156 215.78125 113.90625 215.753906 113.777344 215.738281 C 114.230469 215.605469 114.683594 215.460938 115.136719 215.332031 C 115.28125 215.347656 115.425781 215.375 115.566406 215.390625 C 115.101562 215.53125 114.628906 215.65625 114.164062 215.800781 Z M 115.566406 216.03125 C 115.476562 216.015625 115.390625 216 115.300781 215.988281 C 115.785156 215.84375 116.273438 215.707031 116.757812 215.5625 C 116.859375 215.578125 116.960938 215.59375 117.0625 215.605469 C 116.566406 215.757812 116.0625 215.875 115.566406 216.03125 Z M 117.0625 216.277344 C 116.953125 216.257812 116.84375 216.238281 116.730469 216.222656 C 117.25 216.0625 117.769531 215.9375 118.285156 215.785156 C 118.339844 215.789062 118.394531 215.796875 118.449219 215.804688 C 117.984375 215.949219 117.527344 216.132812 117.0625 216.277344 Z M 118.667969 216.542969 C 118.476562 216.507812 118.289062 216.480469 118.101562 216.449219 C 118.628906 216.285156 119.160156 216.144531 119.6875 215.984375 C 119.835938 216.007812 119.984375 216.027344 120.132812 216.046875 C 119.640625 216.203125 119.15625 216.382812 118.667969 216.542969 Z M 28.597656 267.8125 C 56.488281 244.894531 87.839844 227.742188 120.289062 217.273438 C 120.382812 217.289062 120.480469 217.304688 120.574219 217.320312 C 89.066406 227.699219 58.609375 244.144531 31.328125 265.84375 C 24.0625 271.621094 17.070312 277.777344 10.277344 284.207031 C 16.222656 278.503906 22.296875 272.988281 28.597656 267.8125 Z M 22.515625 273.859375 C 25.527344 271.273438 28.542969 268.695312 31.636719 266.234375 C 59.140625 244.363281 89.871094 227.84375 121.648438 217.503906 C 121.695312 217.511719 121.742188 217.519531 121.789062 217.527344 C 90.996094 227.746094 61.210938 243.597656 34.375 264.257812 C 30.347656 267.359375 26.398438 270.566406 22.515625 273.859375 Z M 27.898438 270.144531 C 30.15625 268.308594 32.378906 266.425781 34.679688 264.65625 C 61.734375 243.824219 91.789062 227.914062 122.847656 217.730469 C 122.90625 217.738281 122.957031 217.753906 123.015625 217.765625 C 92.921875 227.796875 63.792969 243.011719 37.421875 262.675781 C 34.1875 265.089844 31.042969 267.617188 27.898438 270.144531 Z M 37.722656 263.078125 C 38.347656 262.613281 39 262.195312 39.628906 261.734375 C 37.535156 263.257812 35.507812 264.855469 33.453125 266.425781 C 34.886719 265.320312 36.273438 264.160156 37.722656 263.078125 Z M 38.804688 262.988281 C 39.464844 262.5 40.097656 261.976562 40.765625 261.496094 C 41.046875 261.292969 41.347656 261.109375 41.632812 260.902344 C 40.675781 261.582031 39.753906 262.296875 38.804688 262.988281 Z M 123.933594 217.964844 C 124.035156 217.984375 124.132812 218.007812 124.238281 218.03125 C 95.617188 227.597656 67.890625 241.675781 42.546875 259.675781 C 67.824219 241.558594 95.425781 227.378906 123.933594 217.964844 Z M 123.679688 219.320312 C 124.527344 219.03125 125.375 218.746094 126.226562 218.464844 C 126.242188 218.464844 126.261719 218.46875 126.277344 218.472656 C 125.414062 218.765625 124.542969 219.023438 123.679688 219.320312 Z M 127.140625 218.191406 C 127.117188 218.1875 127.09375 218.183594 127.074219 218.179688 C 127.664062 217.984375 128.25 217.773438 128.839844 217.582031 C 128.878906 217.589844 128.914062 217.597656 128.945312 217.605469 C 128.34375 217.800781 127.742188 217.992188 127.140625 218.191406 Z M 131.273438 216.765625 C 131.328125 216.773438 131.378906 216.785156 131.429688 216.792969 C 130.863281 216.972656 130.296875 217.164062 129.730469 217.347656 C 129.691406 217.339844 129.652344 217.332031 129.613281 217.324219 C 130.167969 217.148438 130.71875 216.9375 131.273438 216.765625 Z M 392.542969 378.832031 C 351.570312 363.425781 316.011719 336.402344 280.171875 307.714844 C 278.183594 306.121094 276.195312 304.527344 274.207031 302.929688 C 241.792969 276.929688 208.273438 250.046875 170.035156 232.574219 C 156.828125 226.535156 143.167969 221.867188 129.644531 218.722656 C 130.292969 218.507812 130.953125 218.332031 131.605469 218.125 C 145.601562 221.15625 159.84375 225.867188 174.082031 232.257812 C 213.121094 249.78125 247.375 277.039062 280.5 303.40625 L 284.289062 306.417969 C 289.230469 310.351562 294.554688 314.570312 300.007812 318.820312 C 328.882812 341.324219 360.546875 364.035156 396.402344 377.730469 C 412.382812 383.839844 429.183594 388.074219 446.339844 390.3125 C 471.128906 393.550781 496.210938 392.566406 520.3125 387.683594 C 478.097656 396.929688 432.828125 393.980469 392.542969 378.832031 Z M 446.40625 389.820312 C 429.289062 387.582031 412.523438 383.359375 396.578125 377.261719 C 360.789062 363.59375 329.160156 340.90625 300.3125 318.425781 C 294.867188 314.179688 289.542969 309.957031 284.597656 306.027344 L 280.8125 303.015625 C 247.664062 276.632812 213.382812 249.351562 174.289062 231.800781 C 160.574219 225.644531 146.386719 220.96875 132.375 217.890625 C 132.996094 217.695312 133.625 217.515625 134.246094 217.324219 C 148.769531 220.269531 163.558594 224.980469 178.339844 231.492188 C 218.34375 249.121094 253.445312 276.863281 287.394531 303.695312 L 288.714844 304.738281 C 293.992188 308.90625 299.167969 312.988281 304.425781 317.078125 C 338.070312 343.238281 367.269531 363.292969 400.433594 376.164062 C 416.414062 382.363281 433.152344 386.664062 450.195312 388.9375 C 475.601562 392.320312 501.292969 391.261719 525.863281 386.058594 C 500.113281 391.984375 473.066406 393.304688 446.40625 389.820312 Z M 450.261719 388.441406 C 433.257812 386.175781 416.554688 381.886719 400.617188 375.699219 C 367.503906 362.851562 338.339844 342.816406 304.734375 316.679688 C 299.476562 312.59375 294.300781 308.511719 289.023438 304.347656 L 287.707031 303.300781 C 253.734375 276.453125 218.605469 248.691406 178.539062 231.035156 C 164.308594 224.765625 149.578125 220.074219 135.0625 217.074219 C 135.65625 216.890625 136.25 216.710938 136.84375 216.53125 C 151.902344 219.386719 167.253906 224.09375 182.59375 230.726562 C 223.601562 248.460938 258.953125 276.214844 293.140625 303.050781 L 293.9375 303.679688 C 298.8125 307.503906 303.855469 311.460938 308.847656 315.335938 C 336.195312 336.554688 368.398438 360.382812 404.464844 374.59375 C 420.421875 380.890625 437.109375 385.25 454.050781 387.558594 C 479.410156 391.015625 504.992188 390.003906 529.421875 384.832031 C 503.808594 390.722656 476.871094 391.984375 450.261719 388.441406 Z M 454.121094 387.066406 C 437.214844 384.761719 420.570312 380.410156 404.648438 374.128906 C 368.644531 359.941406 336.476562 336.136719 309.152344 314.9375 C 304.164062 311.066406 299.121094 307.109375 294.25 303.289062 L 293.449219 302.660156 C 259.238281 275.800781 223.855469 248.027344 182.792969 230.269531 C 167.742188 223.757812 152.675781 219.09375 137.886719 216.214844 C 138.378906 216.070312 138.871094 215.910156 139.367188 215.765625 C 154.996094 218.503906 170.941406 223.210938 186.851562 229.957031 C 225.753906 246.46875 258.628906 271.007812 297.566406 301.371094 L 299.609375 302.964844 C 304.148438 306.503906 308.695312 310.054688 313.261719 313.585938 C 342.109375 335.921875 373.230469 358.910156 408.496094 373.027344 C 424.449219 379.414062 441.074219 383.839844 457.910156 386.179688 C 483.257812 389.707031 508.8125 388.734375 533.171875 383.566406 C 507.648438 389.460938 480.746094 390.6875 454.121094 387.066406 Z M 457.976562 385.6875 C 441.183594 383.351562 424.59375 378.9375 408.683594 372.5625 C 373.472656 358.472656 342.390625 335.507812 313.570312 313.191406 C 309.003906 309.660156 304.457031 306.109375 299.917969 302.574219 L 297.871094 300.976562 C 258.90625 270.589844 226.003906 246.03125 187.042969 229.5 C 171.429688 222.875 155.773438 218.214844 140.414062 215.449219 C 140.910156 215.300781 141.398438 215.136719 141.898438 214.996094 C 158.089844 217.613281 174.621094 222.335938 191.101562 229.195312 C 230.832031 245.726562 264.828125 270.898438 301.992188 299.6875 L 307.304688 303.804688 C 310.757812 306.484375 314.214844 309.164062 317.683594 311.84375 C 348.007812 335.269531 378.082031 357.457031 412.53125 371.457031 C 428.457031 377.9375 445.023438 382.429688 461.765625 384.800781 C 487.121094 388.402344 512.617188 387.46875 536.882812 382.304688 C 511.453125 388.199219 484.609375 389.386719 457.976562 385.6875 Z M 461.835938 384.308594 C 445.136719 381.941406 428.609375 377.460938 412.71875 370.992188 C 378.328125 357.019531 348.285156 334.851562 317.988281 311.449219 C 314.519531 308.773438 311.0625 306.089844 307.613281 303.410156 L 302.296875 299.289062 C 265.105469 270.480469 231.082031 245.289062 191.296875 228.730469 C 175.109375 221.996094 158.871094 217.328125 142.949219 214.675781 C 143.417969 214.542969 143.878906 214.378906 144.347656 214.25 C 161.125 216.730469 178.277344 221.460938 195.359375 228.429688 C 235.925781 244.976562 271.042969 270.78125 306.417969 298.003906 C 309.613281 300.460938 312.808594 302.929688 316.003906 305.398438 L 322.101562 310.101562 C 353.894531 334.601562 382.941406 356.015625 416.5625 369.890625 C 432.484375 376.46875 448.988281 381.019531 465.617188 383.421875 C 491.058594 387.105469 516.6875 386.171875 541.097656 380.914062 C 515.613281 386.90625 488.636719 388.105469 461.835938 384.308594 Z M 465.691406 382.929688 C 449.101562 380.535156 432.636719 375.988281 416.75 369.425781 C 383.191406 355.578125 354.167969 334.183594 322.40625 309.703125 L 316.3125 305 C 313.113281 302.53125 309.917969 300.066406 306.722656 297.609375 C 271.320312 270.363281 236.175781 244.539062 195.546875 227.964844 C 178.828125 221.140625 162.035156 216.464844 145.59375 213.933594 C 146.042969 213.8125 146.5 213.714844 146.953125 213.59375 C 164.265625 215.9375 181.984375 220.613281 199.617188 227.660156 C 241.003906 244.207031 277.257812 270.648438 310.84375 296.320312 C 315.085938 299.5625 319.328125 302.824219 323.574219 306.089844 L 326.519531 308.359375 C 354.035156 329.519531 385.21875 353.5 420.59375 368.320312 C 436.492188 374.992188 452.941406 379.609375 469.476562 382.046875 C 494.71875 385.773438 520.097656 384.90625 544.257812 379.757812 C 518.941406 385.648438 492.203125 386.761719 465.691406 382.929688 Z M 469.550781 381.550781 C 453.054688 379.121094 436.648438 374.515625 420.789062 367.855469 C 385.472656 353.066406 354.316406 329.105469 326.828125 307.960938 L 323.878906 305.695312 C 319.632812 302.429688 315.390625 299.164062 311.148438 295.921875 C 277.535156 270.230469 241.25 243.765625 199.800781 227.195312 C 182.566406 220.308594 165.242188 215.664062 148.296875 213.257812 C 148.714844 213.148438 149.132812 213.054688 149.546875 212.945312 C 167.398438 215.144531 185.6875 219.773438 203.867188 226.894531 C 246.117188 243.4375 283.523438 270.535156 315.269531 294.636719 C 320.222656 298.394531 325.113281 302.140625 330.9375 306.613281 C 360.105469 328.992188 390.269531 352.136719 424.628906 366.746094 C 440.511719 373.515625 456.894531 378.203125 473.332031 380.667969 C 498.574219 384.46875 523.929688 383.636719 548.03125 378.480469 C 522.785156 384.382812 496.082031 385.464844 469.550781 381.550781 Z M 473.40625 380.171875 C 457.015625 377.714844 440.667969 373.042969 424.824219 366.289062 C 390.523438 351.703125 360.386719 328.578125 331.242188 306.21875 C 325.417969 301.742188 320.527344 297.996094 315.574219 294.238281 C 283.800781 270.117188 246.359375 242.996094 204.050781 226.429688 C 186.265625 219.464844 168.375 214.875 150.890625 212.609375 C 151.183594 212.535156 151.480469 212.464844 151.773438 212.390625 C 170.285156 214.410156 189.261719 218.894531 208.125 226.125 C 249.148438 241.863281 285.996094 267.542969 319.699219 292.949219 C 325.199219 297.101562 330.703125 301.304688 335.355469 304.867188 L 336.792969 305.964844 C 365.570312 328.003906 395.328125 350.792969 428.65625 365.179688 C 444.515625 372.042969 460.84375 376.789062 477.1875 379.289062 C 502.390625 383.152344 527.675781 382.363281 551.683594 377.230469 C 526.535156 383.117188 499.898438 384.160156 473.40625 380.171875 Z M 481.121094 377.417969 C 464.910156 374.890625 448.683594 370.089844 432.894531 363.15625 C 400.617188 349.007812 371.671875 326.878906 343.679688 305.476562 L 340.082031 302.726562 C 334.125 298.175781 329.144531 294.40625 324.417969 290.867188 C 291.066406 265.890625 254.421875 240.609375 212.558594 224.894531 C 193.523438 217.753906 174.363281 213.355469 155.660156 211.417969 C 155.984375 211.339844 156.304688 211.253906 156.628906 211.175781 C 176.324219 212.839844 196.566406 217.226562 216.636719 224.597656 C 259.308594 240.261719 297.15625 266.238281 328.546875 289.585938 C 333.324219 293.140625 338.445312 297 344.195312 301.382812 C 346.0625 302.800781 347.925781 304.226562 349.792969 305.652344 C 377.09375 326.511719 405.328125 348.078125 436.726562 362.046875 C 452.527344 369.09375 468.738281 373.964844 484.898438 376.53125 C 510.382812 380.585938 535.144531 379.949219 558.875 374.816406 C 533.976562 380.726562 507.925781 381.617188 481.121094 377.417969 Z M 484.980469 376.039062 C 468.859375 373.480469 452.695312 368.621094 436.929688 361.585938 C 405.585938 347.644531 377.378906 326.097656 350.097656 305.257812 C 348.230469 303.832031 346.363281 302.40625 344.5 300.984375 C 338.746094 296.601562 333.628906 292.738281 328.847656 289.183594 C 297.421875 265.820312 259.539062 239.816406 216.808594 224.128906 C 197.175781 216.917969 177.386719 212.574219 158.09375 210.8125 C 158.40625 210.738281 158.710938 210.648438 159.023438 210.578125 C 179.316406 212.050781 200.207031 216.398438 220.890625 223.828125 C 264.308594 239.417969 301.914062 264.964844 332.972656 287.902344 C 337.789062 291.460938 342.90625 295.300781 348.613281 299.636719 C 351.148438 301.5625 353.679688 303.5 356.21875 305.433594 C 382.800781 325.730469 410.289062 346.71875 440.753906 360.476562 C 456.542969 367.621094 472.6875 372.558594 488.753906 375.152344 C 514.214844 379.277344 538.910156 378.679688 562.542969 373.5625 C 537.742188 379.460938 511.757812 380.304688 484.980469 376.039062 Z M 568.972656 371.242188 C 567.648438 371.550781 566.308594 371.769531 564.976562 372.050781 C 566.316406 371.800781 567.648438 371.519531 568.976562 371.238281 C 568.976562 371.238281 568.972656 371.242188 568.972656 371.242188 Z M 504.261719 369.148438 C 488.597656 366.433594 472.730469 361.253906 457.101562 353.75 C 429.953125 340.746094 405.148438 321.742188 381.15625 303.363281 C 376.386719 299.707031 371.453125 295.925781 366.589844 292.265625 C 361.277344 288.261719 356.023438 284.390625 350.96875 280.761719 C 309.8125 251.214844 273.9375 232 238.066406 220.289062 C 220.847656 214.667969 198.582031 209.332031 173.75 208.035156 C 196.039062 208.703125 219.054688 212.636719 242.167969 219.996094 C 278.507812 231.566406 314.394531 250.46875 355.101562 279.488281 C 360.097656 283.046875 365.347656 286.894531 370.710938 290.917969 C 376.101562 294.972656 381.566406 299.167969 386.855469 303.226562 C 410.265625 321.199219 434.472656 339.78125 460.914062 352.628906 C 476.5625 360.25 492.417969 365.511719 508.035156 368.265625 C 530.308594 372.195312 551.894531 372.433594 572.554688 368.992188 C 550.722656 373.132812 527.886719 373.257812 504.261719 369.148438 Z M 508.121094 367.773438 C 492.550781 365.027344 476.742188 359.78125 461.136719 352.179688 C 434.738281 339.355469 410.550781 320.785156 387.160156 302.832031 C 381.871094 298.773438 376.402344 294.574219 371.007812 290.523438 C 365.648438 286.492188 360.390625 282.640625 355.394531 279.078125 C 314.640625 250.035156 278.710938 231.105469 242.320312 219.523438 C 220.554688 212.59375 198.855469 208.644531 177.773438 207.636719 C 200.164062 208.234375 223.265625 212.046875 246.425781 219.230469 C 282.765625 230.507812 319.765625 249.664062 359.53125 277.804688 C 364.625 281.410156 369.875 285.238281 375.128906 289.175781 C 381.011719 293.585938 386.972656 298.175781 392.734375 302.609375 C 415.582031 320.1875 439.207031 338.371094 464.949219 351.0625 C 480.78125 358.886719 496.140625 364.0625 511.890625 366.882812 C 534.164062 370.878906 555.707031 371.15625 576.304688 367.730469 C 554.546875 371.863281 531.746094 371.949219 508.121094 367.773438 Z M 578.570312 366.761719 C 557.316406 370.609375 535.046875 370.539062 511.976562 366.390625 C 496.273438 363.582031 480.964844 358.417969 465.167969 350.617188 C 439.476562 337.945312 415.867188 319.78125 393.042969 302.210938 C 387.277344 297.777344 381.3125 293.191406 375.429688 288.777344 C 370.171875 284.832031 364.917969 281.003906 359.816406 277.394531 C 320.011719 249.230469 282.964844 230.046875 246.570312 218.753906 C 224.917969 212.03125 203.300781 208.203125 182.277344 207.230469 C 204.617188 207.808594 227.632812 211.5 250.675781 218.464844 C 287.519531 229.59375 324.574219 248.453125 363.957031 276.121094 C 369 279.660156 374.242188 283.464844 379.546875 287.429688 C 385.917969 292.195312 392.363281 297.167969 398.597656 301.980469 C 420.882812 319.175781 443.929688 336.960938 468.980469 349.492188 C 484.785156 357.414062 500.082031 362.65625 515.746094 365.507812 C 537.574219 369.496094 558.671875 369.832031 578.839844 366.625 C 578.75 366.671875 578.664062 366.71875 578.570312 366.761719 Z M 580.203125 365.933594 C 559.65625 369.382812 538.121094 369.089844 515.835938 365.011719 C 500.21875 362.171875 484.96875 356.949219 469.207031 349.046875 C 444.199219 336.539062 421.171875 318.769531 398.902344 301.585938 C 392.667969 296.773438 386.21875 291.796875 379.84375 287.027344 C 374.539062 283.0625 369.289062 279.257812 364.242188 275.710938 C 324.816406 248.015625 287.71875 229.136719 250.824219 217.988281 C 229.289062 211.480469 207.765625 207.777344 186.796875 206.835938 C 209.085938 207.386719 232.019531 210.960938 254.933594 217.699219 C 292.269531 228.675781 329.375 247.234375 368.378906 274.433594 C 373.496094 278 378.738281 281.785156 383.964844 285.6875 C 390.800781 290.785156 397.703125 296.132812 404.382812 301.296875 C 426.132812 318.136719 448.621094 335.542969 473.011719 347.925781 C 488.78125 355.945312 504.023438 361.246094 519.601562 364.128906 C 540.816406 368.066406 561.304688 368.488281 580.910156 365.574219 C 580.671875 365.691406 580.441406 365.8125 580.203125 365.933594 Z M 582.214844 364.910156 C 562.246094 368.046875 541.347656 367.664062 519.691406 363.636719 C 504.164062 360.761719 488.964844 355.476562 473.238281 347.480469 C 448.890625 335.121094 426.421875 317.726562 404.6875 300.90625 C 398.007812 295.734375 391.101562 290.390625 384.265625 285.285156 C 379.03125 281.382812 373.785156 277.597656 368.667969 274.027344 C 329.617188 246.792969 292.460938 228.210938 255.074219 217.21875 C 233.625 210.914062 212.15625 207.335938 191.21875 206.4375 C 213.492188 206.953125 236.363281 210.402344 259.1875 216.929688 C 297 227.742188 334.167969 246 372.804688 272.753906 C 377.9375 276.304688 383.175781 280.066406 388.382812 283.945312 C 395.652344 289.355469 402.988281 295.054688 410.082031 300.5625 C 431.320312 317.058594 453.28125 334.121094 477.042969 346.355469 C 492.773438 354.46875 507.957031 359.832031 523.457031 362.75 C 544.050781 366.640625 563.921875 367.15625 582.953125 364.535156 C 582.707031 364.660156 582.460938 364.785156 582.214844 364.910156 Z M 584.28125 363.859375 C 564.882812 366.695312 544.589844 366.226562 523.550781 362.261719 C 508.097656 359.351562 492.960938 354.003906 477.277344 345.910156 C 453.554688 333.695312 431.609375 316.652344 410.390625 300.167969 C 403.292969 294.65625 395.957031 288.957031 388.683594 283.542969 C 383.472656 279.660156 378.226562 275.894531 373.089844 272.34375 C 334.402344 245.558594 297.191406 227.277344 259.328125 216.449219 C 238.015625 210.355469 216.644531 206.898438 195.769531 206.03125 C 217.984375 206.527344 240.757812 209.859375 263.445312 216.164062 C 301.191406 226.652344 339.476562 245.125 377.234375 271.066406 C 382.433594 274.640625 387.667969 278.386719 392.804688 282.199219 C 400.507812 287.921875 408.269531 293.976562 415.773438 299.828125 C 436.503906 315.984375 457.9375 332.699219 481.078125 344.789062 C 496.769531 353 511.894531 358.425781 527.3125 361.371094 C 547.28125 365.199219 566.550781 365.820312 585.023438 363.480469 C 584.777344 363.609375 584.527344 363.730469 584.28125 363.859375 Z M 586.347656 362.808594 C 567.515625 365.359375 547.828125 364.796875 527.40625 360.882812 C 512.035156 357.941406 496.957031 352.53125 481.3125 344.34375 C 458.210938 332.28125 436.792969 315.582031 416.082031 299.429688 C 408.574219 293.578125 400.8125 287.527344 393.101562 281.796875 C 387.960938 277.984375 382.71875 274.234375 377.515625 270.660156 C 339.714844 244.683594 301.382812 226.1875 263.582031 215.683594 C 242.410156 209.800781 221.15625 206.46875 200.355469 205.632812 C 222.5 206.109375 245.164062 209.320312 267.699219 215.398438 C 305.90625 225.707031 344.246094 243.867188 381.660156 269.386719 C 386.878906 272.949219 392.113281 276.671875 397.21875 280.457031 C 405.339844 286.472656 413.507812 292.863281 421.402344 299.046875 C 441.640625 314.890625 462.566406 331.273438 485.109375 343.214844 C 500.777344 351.53125 515.84375 357.015625 531.167969 359.992188 C 550.527344 363.757812 569.199219 364.496094 587.097656 362.425781 C 586.851562 362.554688 586.59375 362.675781 586.347656 362.808594 Z M 588.320312 361.765625 C 570.082031 364.023438 551.027344 363.347656 531.265625 359.507812 C 515.984375 356.539062 500.964844 351.0625 485.34375 342.777344 C 462.839844 330.855469 441.929688 314.484375 421.710938 298.65625 C 413.8125 292.472656 405.644531 286.074219 397.519531 280.054688 C 392.40625 276.265625 387.164062 272.539062 381.941406 268.972656 C 344.480469 243.425781 306.089844 225.238281 267.828125 214.917969 C 246.761719 209.230469 225.574219 206.019531 204.8125 205.222656 C 226.925781 205.667969 249.527344 208.761719 271.957031 214.628906 C 310.601562 224.746094 349 242.601562 386.085938 267.703125 C 391.265625 271.207031 396.496094 274.910156 401.640625 278.710938 C 410.15625 285.003906 418.707031 291.726562 426.972656 298.226562 C 446.734375 313.769531 467.171875 329.839844 489.140625 341.644531 C 504.761719 350.054688 519.769531 355.609375 535.027344 358.617188 C 553.691406 362.300781 571.707031 363.179688 588.980469 361.398438 C 588.757812 361.519531 588.542969 361.644531 588.320312 361.765625 Z M 590.164062 360.738281 C 572.558594 362.691406 554.183594 361.886719 535.125 358.128906 C 519.914062 355.125 504.953125 349.589844 489.378906 341.207031 C 467.449219 329.421875 447.027344 313.363281 427.28125 297.835938 C 419.011719 291.332031 410.460938 284.609375 401.9375 278.308594 C 396.789062 274.503906 391.546875 270.800781 386.367188 267.289062 C 349.230469 242.15625 310.78125 224.277344 272.082031 214.148438 C 251.160156 208.671875 230.078125 205.582031 209.382812 204.816406 C 231.441406 205.238281 253.929688 208.214844 276.210938 213.863281 C 315.292969 223.777344 353.746094 241.324219 390.511719 266.019531 C 395.730469 269.523438 400.960938 273.210938 406.058594 276.96875 C 414.953125 283.523438 423.863281 290.5625 432.476562 297.371094 C 451.785156 312.625 471.75 328.398438 493.175781 340.078125 C 508.765625 348.589844 523.714844 354.199219 538.882812 357.234375 C 551.554688 359.777344 563.929688 361.046875 575.96875 361.046875 C 580.988281 361.046875 585.945312 360.800781 590.84375 360.359375 C 590.617188 360.484375 590.394531 360.613281 590.164062 360.738281 Z M 591.996094 359.71875 C 575.035156 361.375 557.332031 360.425781 538.980469 356.746094 C 523.867188 353.722656 508.960938 348.125 493.414062 339.640625 C 472.027344 327.980469 452.078125 312.21875 432.785156 296.976562 C 424.167969 290.167969 415.257812 283.128906 406.359375 276.566406 C 401.253906 272.804688 396.015625 269.117188 390.789062 265.605469 C 353.976562 240.875 315.46875 223.308594 276.335938 213.382812 C 255.546875 208.105469 234.566406 205.136719 213.933594 204.40625 C 235.933594 204.804688 258.328125 207.664062 280.46875 213.101562 C 319.976562 222.796875 358.488281 240.039062 394.933594 264.335938 C 400.101562 267.777344 405.332031 271.441406 410.476562 275.222656 C 419.742188 282.035156 429 289.386719 437.949219 296.496094 C 456.8125 311.472656 476.316406 326.957031 497.207031 338.507812 C 512.75 347.117188 527.648438 352.792969 542.738281 355.859375 C 555.785156 358.515625 568.324219 359.847656 580.453125 359.847656 C 584.582031 359.847656 588.648438 359.644531 592.683594 359.335938 C 592.457031 359.464844 592.226562 359.589844 591.996094 359.71875 Z M 594.777344 361.445312 C 594.792969 361.445312 594.8125 361.441406 594.832031 361.441406 C 594.824219 361.441406 594.816406 361.445312 594.8125 361.449219 C 594.789062 361.453125 594.769531 361.457031 594.746094 361.460938 C 594.757812 361.457031 594.765625 361.453125 594.777344 361.445312 Z M 284.722656 212.335938 C 324.652344 221.8125 363.222656 238.746094 399.363281 262.652344 C 404.578125 266.101562 409.804688 269.742188 414.894531 273.480469 C 424.523438 280.539062 434.121094 288.207031 443.40625 295.613281 C 461.828125 310.316406 480.875 325.523438 501.238281 336.941406 C 516.753906 345.648438 531.585938 351.382812 546.589844 354.480469 C 559.738281 357.195312 572.355469 358.558594 584.542969 358.558594 C 587.976562 358.558594 591.367188 358.410156 594.734375 358.195312 C 594.386719 358.390625 594.03125 358.582031 593.683594 358.78125 C 577.523438 360.125 560.652344 358.992188 542.835938 355.371094 C 527.796875 352.3125 512.949219 346.652344 497.449219 338.070312 C 476.59375 326.542969 457.109375 311.070312 438.261719 296.105469 C 429.308594 288.996094 420.042969 281.640625 410.777344 274.820312 C 405.621094 271.035156 400.382812 267.367188 395.214844 263.917969 C 358.71875 239.589844 320.152344 222.328125 280.589844 212.613281 C 259.9375 207.542969 239.066406 204.695312 218.5 204 C 240.445312 204.371094 262.738281 207.113281 284.722656 212.335938 Z M 284.722656 212.335938 " fill-opacity="1" fill-rule="nonzero"/></g></svg>